<?xml version="1.0" standalone="no"?>
<!DOCTYPE svg PUBLIC "-//W3C//DTD SVG 20010904//EN"
 "http://www.w3.org/TR/2001/REC-SVG-20010904/DTD/svg10.dtd">
<svg version="1.0" xmlns="http://www.w3.org/2000/svg"
 width="500.000000pt" height="500.000000pt" viewBox="0 0 500.000000 500.000000"
 preserveAspectRatio="xMidYMid meet">
<metadata>
Created by potrace 1.14, written by Peter Selinger 2001-2017
</metadata>
<g transform="translate(0.000000,500.000000) scale(0.100000,-0.100000)"
fill="#000000" stroke="none">
<path d="M2527 4264 c-3 -3 -20 -8 -39 -11 -18 -3 -35 -7 -37 -9 -2 -2 -10 1
-18 7 -10 9 -13 8 -13 0 0 -7 -4 -10 -9 -7 -5 4 -12 0 -14 -6 -4 -10 -8 -9
-16 2 -7 10 -11 11 -11 3 0 -7 -3 -12 -7 -12 -19 3 -33 -2 -48 -18 -14 -13
-18 -14 -25 -2 -7 11 -10 10 -16 -5 -4 -10 -9 -13 -13 -7 -4 6 -18 1 -35 -14
-16 -13 -37 -27 -47 -30 -11 -4 -16 -12 -12 -21 3 -9 -2 -14 -16 -14 -12 0
-21 -4 -21 -10 0 -5 -11 -10 -25 -10 -21 0 -25 -5 -25 -29 0 -25 -3 -28 -26
-23 -19 3 -25 1 -20 -7 4 -6 -3 -15 -18 -21 -14 -5 -26 -16 -26 -25 0 -8 -5
-15 -11 -15 -5 0 -8 -4 -5 -8 3 -5 -8 -19 -24 -31 -23 -17 -30 -29 -30 -56 0
-19 -5 -35 -10 -35 -6 0 -10 -15 -8 -33 1 -18 -2 -38 -6 -45 -4 -7 -9 -76 -12
-155 -5 -141 -5 -142 21 -170 14 -16 34 -29 44 -30 17 -1 17 -3 4 -23 -9 -15
-11 -24 -3 -29 6 -3 8 -11 5 -16 -4 -5 -1 -17 5 -26 11 -17 11 -17 6 0 -3 9
-1 17 4 17 5 0 9 10 7 22 -3 35 27 33 93 -7 34 -20 66 -38 73 -39 7 -1 18 -5
25 -10 8 -5 18 -4 25 3 8 8 5 11 -10 11 -12 0 -23 3 -25 8 -2 4 -35 23 -73 43
-88 46 -108 76 -89 133 8 21 12 42 9 46 -2 4 4 15 15 25 10 9 17 22 14 29 -2
6 9 26 25 43 16 18 27 34 25 36 -3 2 2 10 11 17 17 14 21 35 5 25 -26 -16 -5
16 35 54 25 23 42 47 39 53 -4 6 -2 8 4 4 6 -3 13 2 17 13 7 23 65 45 113 43
27 -1 32 1 23 12 -8 10 -4 12 22 12 57 0 109 11 118 25 7 11 9 11 9 -3 0 -9 9
-20 20 -23 11 -3 20 -12 20 -18 0 -7 4 -6 10 3 7 11 12 12 18 4 4 -7 27 -14
51 -17 24 -2 47 -11 52 -18 5 -9 39 -16 96 -20 62 -4 101 -13 132 -29 46 -23
80 -56 81 -77 0 -6 5 -15 12 -19 7 -4 8 -3 4 4 -4 7 -1 12 6 12 22 0 44 -70
42 -132 -2 -58 -20 -101 -55 -125 -12 -9 -16 -22 -12 -49 5 -36 5 -37 -24 -28
-55 16 -172 4 -193 -21 -11 -13 -4 -45 11 -45 5 0 9 7 9 16 0 8 5 12 10 9 6
-4 8 -9 6 -13 -2 -4 22 -7 54 -7 32 -1 69 -6 82 -12 13 -6 34 -16 48 -22 25
-11 25 -11 -5 -6 -127 19 -274 12 -283 -15 -2 -6 -32 -10 -67 -10 -58 0 -63
-2 -69 -24 -3 -13 -9 -32 -13 -42 -4 -11 -3 -15 4 -11 6 4 13 20 16 37 6 27
10 30 44 29 21 0 47 -5 58 -10 15 -6 11 -7 -14 -3 -32 6 -34 5 -19 -10 18 -17
42 -94 52 -162 5 -39 3 -44 -34 -78 -22 -20 -46 -36 -53 -36 -6 -1 5 -10 26
-21 23 -12 67 -22 117 -26 68 -5 80 -4 86 10 6 17 1 27 -80 148 -60 91 -62 95
-41 116 16 15 16 18 1 28 -26 19 -20 54 12 67 38 16 197 12 257 -5 28 -9 44
-16 37 -16 -7 -1 -10 -6 -6 -13 5 -7 2 -9 -9 -5 -10 4 -18 -1 -22 -14 -8 -23
-9 -23 -60 -4 -56 20 -129 19 -146 -1 -12 -15 -11 -16 16 -10 18 3 60 -2 105
-15 41 -11 85 -23 97 -26 11 -3 25 -15 29 -26 6 -17 8 -12 11 23 3 24 10 48
16 52 9 6 8 10 -3 17 -8 6 -11 13 -7 17 13 13 37 -19 37 -50 0 -53 -19 -104
-50 -129 l-29 -24 25 -12 c33 -15 32 -68 -3 -129 -45 -81 -53 -97 -53 -111 0
-19 -35 -75 -89 -143 -50 -63 -66 -72 -59 -33 3 14 1 28 -3 31 -5 3 -9 -4 -9
-15 0 -11 -6 -24 -13 -28 -7 -4 -21 -25 -32 -46 -20 -40 -44 -64 -32 -34 3 10
2 17 -3 17 -6 0 -10 -7 -10 -15 0 -8 -4 -15 -10 -15 -5 0 -10 -6 -10 -13 0 -8
-11 -27 -25 -43 -16 -19 -25 -24 -25 -14 0 13 -1 13 -10 0 -5 -8 -10 -12 -10
-7 0 4 -10 1 -22 -7 -18 -11 -38 -12 -98 -4 -41 5 -79 13 -84 18 -6 6 -16 10
-23 10 -23 0 -14 -17 17 -30 42 -17 38 -32 -6 -24 l-37 7 24 -32 c27 -36 61
-61 85 -61 20 0 59 -31 59 -47 0 -7 -7 -18 -15 -25 -9 -7 -24 -23 -35 -36 -18
-22 -18 -23 0 -16 14 6 16 4 10 -6 -6 -10 -4 -12 7 -8 8 4 21 3 28 -2 11 -7
77 7 125 26 19 8 19 7 4 -16 -21 -33 -23 -91 -3 -83 21 8 17 -14 -6 -37 -24
-24 -40 -25 -109 -4 -81 24 -262 20 -296 -7 -6 -4 -44 -9 -85 -10 -68 -2 -75
-1 -76 17 -1 10 -13 37 -28 59 -92 133 -102 192 -62 353 38 152 40 181 17 233
-11 25 -26 69 -32 98 l-11 53 -27 -24 c-14 -13 -44 -36 -66 -50 -77 -48 -153
-127 -181 -186 -14 -31 -42 -76 -60 -99 -19 -23 -34 -44 -34 -48 0 -4 -15 -33
-34 -65 -19 -32 -36 -66 -38 -75 -3 -19 -89 -57 -183 -81 -87 -23 -319 -118
-375 -154 -83 -54 -155 -141 -209 -253 -181 -381 -178 -372 -186 -453 -6 -54
-13 -75 -33 -96 -21 -23 -23 -30 -12 -43 8 -9 9 -15 2 -15 -12 0 -31 -60 -32
-95 0 -11 -2 -36 -6 -55 -5 -32 1 -43 79 -140 107 -133 312 -333 442 -431 83
-62 276 -189 288 -189 5 0 -4 181 -13 250 -4 36 -17 112 -29 170 -12 58 -21
120 -21 137 l0 33 78 -6 c100 -7 102 -8 102 -44 0 -20 4 -29 11 -24 6 3 8 17
5 30 -6 24 -5 24 66 24 40 0 78 -4 84 -8 6 -4 14 -23 17 -42 11 -76 32 -160
39 -160 4 0 5 15 2 33 -13 77 -26 143 -30 158 -4 16 17 17 258 12 145 -2 277
-4 293 -3 48 1 109 -11 95 -20 -6 -4 -11 -10 -11 -14 1 -3 1 -15 1 -26 0 -19
-1 -20 -24 -4 -14 8 -27 23 -29 32 -4 16 -5 16 -6 0 0 -10 13 -34 31 -53 20
-24 33 -49 35 -73 6 -74 10 -99 16 -108 3 -6 2 -16 -4 -24 -12 -20 -11 -132 1
-165 6 -15 12 -53 15 -84 2 -32 7 -71 11 -87 4 -16 4 -27 1 -24 -9 8 -58 142
-62 170 -13 76 -23 121 -30 128 -4 4 -5 -15 -3 -41 5 -46 5 -47 -13 -31 -11 9
-19 12 -19 7 0 -6 7 -16 15 -23 14 -11 14 -15 -2 -34 -10 -12 -11 -15 -3 -9
22 20 40 15 40 -11 0 -13 6 -41 14 -63 14 -40 15 -111 2 -132 -4 -7 -2 -19 5
-27 6 -8 13 -24 15 -37 20 -117 20 -117 94 -117 52 0 58 2 53 19 -3 10 0 22 6
25 6 4 11 12 11 17 0 6 -5 7 -10 4 -13 -8 -11 385 2 402 6 7 5 14 -2 18 -6 4
-7 13 -1 23 5 10 3 57 -5 117 -7 55 -13 127 -14 160 0 58 1 61 26 63 18 1 23
-2 18 -11 -6 -9 -5 -9 7 -1 9 8 71 13 169 14 85 2 178 3 205 4 28 1 56 -2 63
-7 7 -6 12 -6 12 0 0 6 12 8 26 5 17 -3 23 -9 20 -19 -3 -8 -6 -19 -6 -24 0
-5 -10 -9 -22 -8 -13 0 -17 3 -10 6 6 2 10 9 6 14 -9 15 -21 10 -27 -11 -3
-11 0 -18 6 -17 12 2 17 -22 8 -38 -3 -5 -6 -12 -7 -15 0 -3 -4 -13 -8 -22
-10 -22 -4 -50 12 -56 7 -2 10 2 6 12 -3 9 -1 16 6 16 6 0 8 4 5 10 -3 5 -2
10 3 10 6 0 8 9 5 20 -3 12 -1 20 5 18 5 -2 9 0 9 3 -1 4 5 15 14 25 9 11 20
33 24 51 4 22 11 30 21 26 7 -3 49 -6 91 -8 113 -4 111 -3 116 -22 4 -15 5
-15 6 2 1 18 7 20 40 17 38 -4 39 -5 30 -29 -5 -14 -7 -28 -4 -31 3 -3 5 -1 5
4 0 5 14 -16 30 -46 27 -48 29 -58 19 -83 -13 -31 -33 -32 -35 -1 0 10 -1 40
-2 67 -2 39 -5 47 -21 47 -20 0 -68 -66 -63 -87 1 -6 -2 -14 -8 -18 -5 -3 -10
-15 -10 -26 0 -10 -4 -19 -9 -19 -19 0 -28 87 -12 118 4 9 11 33 15 54 6 36 6
36 -28 36 -19 0 -39 3 -45 6 -11 7 -53 -43 -45 -55 5 -8 -2 -11 -22 -8 -16 2
-31 -37 -24 -62 6 -20 4 -29 -6 -33 -8 -3 -14 -12 -14 -21 0 -8 -4 -15 -9 -15
-5 0 -12 -8 -14 -17 -4 -15 -5 -14 -6 3 0 12 8 31 19 44 19 22 19 24 4 42 -25
27 -34 22 -34 -16 0 -19 -6 -37 -12 -39 -10 -4 -10 -6 -1 -6 9 -1 10 -8 2 -28
-6 -16 -9 -30 -8 -33 1 -3 -9 -10 -21 -17 -14 -7 -24 -22 -26 -38 -2 -22 0
-24 12 -14 11 9 14 8 14 -5 0 -9 -7 -19 -15 -22 -8 -4 -15 -15 -15 -26 0 -19
-26 -47 -64 -69 -13 -8 -9 2 12 27 20 24 28 40 21 45 -8 4 -7 8 2 12 12 4 12
7 0 18 -8 8 -11 9 -8 3 4 -7 0 -17 -7 -23 -21 -18 -68 -111 -62 -124 2 -7 5
-4 5 7 1 12 6 16 16 13 8 -4 17 -2 20 3 7 12 36 13 34 3 -3 -20 2 -24 17 -12
15 12 16 11 9 -10 -12 -38 -13 -71 -2 -71 6 0 3 -8 -6 -18 -16 -17 -16 -19 0
-19 23 0 70 50 88 94 19 45 38 33 33 -21 -3 -32 -9 -40 -43 -59 -51 -28 -52
-29 -38 -34 9 -3 9 -10 1 -29 -10 -22 -20 -28 -40 -25 -11 1 -10 -17 0 -23 5
-3 21 7 37 21 l28 27 -6 -25 c-4 -13 -7 -28 -7 -32 0 -5 -3 -6 -7 -4 -5 3 -8
-8 -9 -24 -1 -16 -9 -38 -19 -49 -20 -22 -14 -26 16 -10 10 6 19 17 19 25 0 8
6 15 14 15 23 0 31 22 12 35 -12 9 -14 18 -8 35 7 20 10 21 15 7 4 -10 2 -17
-4 -17 -5 0 -4 -6 3 -14 8 -9 17 -11 24 -5 8 6 14 4 18 -7 9 -23 8 -26 -6 -18
-8 5 -9 2 -5 -9 3 -9 3 -16 -1 -16 -21 3 -27 -4 -28 -31 -1 -25 2 -29 20 -25
275 59 430 111 631 209 212 105 411 235 554 362 l43 39 -12 45 c-7 25 -13 68
-15 95 -2 28 -10 88 -19 135 -18 89 -27 151 -46 315 -15 127 -70 298 -154 475
-37 80 -130 209 -162 225 -11 6 -35 22 -54 36 -43 32 -219 125 -320 169 -41
17 -84 40 -94 51 -18 17 -18 20 -4 36 26 30 39 87 41 175 1 74 -1 88 -26 130
-43 75 -137 147 -237 183 -70 25 -83 38 -75 75 4 17 17 43 30 58 25 30 71 139
81 192 4 19 15 51 25 71 22 45 36 154 20 163 -6 4 -11 12 -11 17 0 6 4 8 9 5
10 -7 33 83 25 96 -3 4 -1 8 4 8 9 0 19 44 28 125 2 17 6 76 9 133 4 86 3 103
-10 108 -8 4 -15 17 -15 30 0 28 -20 74 -32 74 -7 0 -31 48 -29 57 0 2 -9 13
-22 26 -12 13 -31 36 -42 50 -11 14 -26 26 -33 27 -7 0 -15 7 -18 15 -4 8 -10
12 -15 9 -5 -3 -9 1 -9 8 0 7 -20 24 -45 37 -25 13 -45 27 -45 32 0 4 -17 13
-37 20 -21 7 -51 20 -68 30 -16 11 -38 19 -47 19 -10 0 -18 5 -18 10 0 6 -3 9
-7 9 -5 -1 -10 0 -13 1 -3 1 -27 4 -55 6 -75 7 -75 7 -75 16 0 5 -4 6 -10 3
-5 -3 -10 -2 -10 2 0 10 -35 15 -43 7z m540 -1121 c-2 -16 -4 -5 -4 22 0 28 2
40 4 28 2 -13 2 -35 0 -50z m-330 -112 c10 -22 9 -26 -14 -38 -52 -27 -72 -11
-46 36 21 36 42 36 60 2z m448 -751 c3 -5 -3 -10 -15 -10 -12 0 -18 5 -15 10
3 6 10 10 15 10 5 0 12 -4 15 -10z m-599 -65 c-20 -15 -36 -19 -36 -10 0 5 38
23 50 24 3 0 -4 -6 -14 -14z m-1201 -25 c3 -5 1 -10 -4 -10 -6 0 -11 5 -11 10
0 6 2 10 4 10 3 0 8 -4 11 -10z m1430 -50 c3 -5 1 -10 -4 -10 -6 0 -11 5 -11
10 0 6 2 10 4 10 3 0 8 -4 11 -10z m-1346 -102 c10 -30 9 -31 -4 -14 -8 11
-15 26 -15 33 0 22 8 14 19 -19z m-192 -80 c-3 -8 -6 -5 -6 6 -1 11 2 17 5 13
3 -3 4 -12 1 -19z m1180 -54 c-3 -3 -12 -4 -19 -1 -8 3 -5 6 6 6 11 1 17 -2
13 -5z m-1495 -36 c-9 -9 -12 -7 -12 12 0 19 3 21 12 12 9 -9 9 -15 0 -24z
m335 0 c-3 -7 -5 -2 -5 12 0 14 2 19 5 13 2 -7 2 -19 0 -25z m1193 18 c0 -2
-7 -7 -16 -10 -8 -3 -12 -2 -9 4 6 10 25 14 25 6z m-1702 -31 c-3 -3 -9 2 -12
12 -6 14 -5 15 5 6 7 -7 10 -15 7 -18z m195 -40 l6 -40 -13 30 c-8 16 -11 35
-9 43 7 18 9 13 16 -33z m1592 15 c-3 -5 -12 -10 -18 -10 -7 0 -6 4 3 10 19
12 23 12 15 0z m1192 -37 c-3 -10 -5 -2 -5 17 0 19 2 27 5 18 2 -10 2 -26 0
-35z m-2967 -18 c0 -5 -5 -3 -10 5 -5 8 -10 20 -10 25 0 6 5 3 10 -5 5 -8 10
-19 10 -25z m197 -37 c-3 -7 -5 -2 -5 12 0 14 2 19 5 13 2 -7 2 -19 0 -25z
m480 -70 c-2 -18 -4 -4 -4 32 0 36 2 50 4 33 2 -18 2 -48 0 -65z m693 88 c0
-2 -7 -6 -15 -10 -8 -3 -15 -1 -15 4 0 6 7 10 15 10 8 0 15 -2 15 -4z m-833
-48 c-3 -8 -6 -5 -6 6 -1 11 2 17 5 13 3 -3 4 -12 1 -19z m2530 -15 c-3 -10
-5 -4 -5 12 0 17 2 24 5 18 2 -7 2 -21 0 -30z m-2430 -25 c-3 -8 -6 -5 -6 6
-1 11 2 17 5 13 3 -3 4 -12 1 -19z m2433 -7 c0 -6 -4 -12 -8 -15 -5 -3 -9 1
-9 9 0 8 4 15 9 15 4 0 8 -4 8 -9z m-2480 -70 c0 -21 -16 -2 -25 29 -7 24 -7
24 9 5 8 -11 16 -27 16 -34z m-760 -438 c0 -7 -39 17 -46 28 -3 6 5 3 20 -6
14 -10 26 -19 26 -22z m2464 -32 c42 -68 42 -71 16 -71 -11 0 -20 5 -20 11 0
5 5 7 10 4 13 -8 13 1 -1 26 -6 12 -18 19 -31 17 -12 -2 -23 3 -26 11 -3 10 0
12 12 8 12 -5 16 -3 14 5 -3 7 -15 15 -29 18 -23 6 -23 6 -4 18 11 6 21 12 22
12 1 0 18 -26 37 -59z m-56 -27 c21 -32 21 -35 5 -32 -10 2 -18 8 -19 13 0 6
-4 18 -9 28 -6 14 -10 15 -21 6 -9 -7 -14 -8 -14 -1 0 9 14 19 30 21 3 0 15
-15 28 -35z m42 -4 c0 -5 -4 -10 -10 -10 -5 0 -10 5 -10 10 0 6 5 10 10 10 6
0 10 -4 10 -10z m-105 -11 c11 -16 1 -19 -13 -3 -7 8 -8 14 -3 14 5 0 13 -5
16 -11z m-18 -15 c-3 -3 -12 -4 -19 -1 -8 3 -5 6 6 6 11 1 17 -2 13 -5z m57
-66 c6 -4 -2 -7 -19 -7 -16 0 -24 3 -17 6 6 2 12 11 12 19 0 8 -6 14 -12 14
-9 0 -8 4 2 10 12 7 16 4 19 -13 1 -12 8 -25 15 -29z m-61 30 c7 -21 -4 -38
-23 -38 -23 0 -34 16 -26 35 7 18 43 20 49 3z m114 -10 c-3 -8 -6 -5 -6 6 -1
11 2 17 5 13 3 -3 4 -12 1 -19z m556 8 c3 -8 0 -17 -7 -19 -10 -4 -12 1 -9 14
6 23 9 24 16 5z m-448 -37 c-10 -15 -25 -10 -19 6 4 8 10 12 15 9 5 -3 7 -10
4 -15z m-102 4 c-7 -2 -19 -2 -25 0 -7 3 -2 5 12 5 14 0 19 -2 13 -5z m57 -3
c0 -5 -4 -10 -10 -10 -5 0 -10 5 -10 10 0 6 5 10 10 10 6 0 10 -4 10 -10z
m-1990 -10 c0 -5 -2 -10 -4 -10 -3 0 -8 5 -11 10 -3 6 -1 10 4 10 6 0 11 -4
11 -10z m-43 -72 c-3 -7 -5 -2 -5 12 0 14 2 19 5 13 2 -7 2 -19 0 -25z m1210
-235 c-2 -37 -3 -9 -3 62 0 72 1 102 3 68 2 -34 2 -93 0 -130z m1101 161 c-32
-17 -32 -17 -16 -44 10 -16 10 -22 -1 -32 -12 -11 -13 -10 -8 5 4 11 1 20 -8
23 -8 4 -15 12 -15 20 0 15 -16 19 -24 6 -6 -10 19 -43 27 -35 4 3 7 1 7 -5 0
-7 -4 -12 -9 -12 -5 0 -15 -16 -21 -36 l-12 -37 -20 54 c-11 30 -23 66 -25 82
l-5 27 78 0 c76 -1 78 -1 52 -16z m-302 -180 c-3 -8 -11 -14 -18 -13 -10 0
-10 2 0 6 6 2 9 9 6 14 -3 6 -2 18 2 27 7 16 7 16 11 -1 3 -10 2 -25 -1 -33z
m104 -10 c0 -8 -5 -12 -10 -9 -6 4 -8 11 -5 16 9 14 15 11 15 -7z m90 -18 c0
-2 -7 -9 -15 -16 -13 -11 -14 -10 -9 4 5 14 24 23 24 12z m-160 -16 c0 -5 -2
-10 -4 -10 -3 0 -8 5 -11 10 -3 6 -1 10 4 10 6 0 11 -4 11 -10z m668 -36 c-12
-12 -17 -13 -23 -3 -5 7 -4 10 2 6 6 -4 14 0 17 9 4 9 9 14 13 10 4 -3 0 -14
-9 -22z m162 7 c-11 -21 -30 -37 -30 -25 0 8 30 44 37 44 2 0 -1 -9 -7 -19z
m-235 -41 c-3 -5 -12 -10 -18 -10 -7 0 -6 4 3 10 19 12 23 12 15 0z m-576 -99
c-11 -23 -25 -43 -29 -46 -5 -3 -4 -20 1 -38 12 -41 12 -42 -6 -27 -20 17 -19
42 3 82 10 18 24 44 31 56 7 13 15 22 17 19 3 -3 -5 -23 -17 -46z m57 -16 c-9
-14 -21 -25 -27 -25 -7 0 -4 10 5 23 9 12 20 31 23 42 7 18 8 18 11 2 2 -10
-4 -29 -12 -42z m-356 11 c0 -2 -7 -9 -15 -16 -13 -11 -14 -10 -9 4 5 14 24
23 24 12z m414 -21 c-4 -8 -14 -15 -23 -15 -14 1 -13 3 3 15 25 19 27 19 20 0z
m-354 -29 c0 -11 -19 -15 -25 -6 -3 5 1 10 9 10 9 0 16 -2 16 -4z m67 -18 c-3
-8 -6 -5 -6 6 -1 11 2 17 5 13 3 -3 4 -12 1 -19z m53 2 c9 -17 8 -20 -10 -20
-13 0 -20 7 -20 20 0 11 4 20 10 20 5 0 14 -9 20 -20z m160 0 c0 -11 -2 -20
-4 -20 -2 0 -6 9 -9 20 -3 11 -1 20 4 20 5 0 9 -9 9 -20z m38 -5 c6 -14 8 -25
3 -25 -4 0 -13 11 -19 25 -6 14 -8 25 -3 25 4 0 13 -11 19 -25z m-83 5 c3 -5
1 -10 -4 -10 -6 0 -11 5 -11 10 0 6 2 10 4 10 3 0 8 -4 11 -10z m135 -5 c0 -8
-4 -15 -10 -15 -5 0 -10 7 -10 15 0 8 5 15 10 15 6 0 10 -7 10 -15z m-75 -46
c11 -17 -1 -21 -15 -4 -8 9 -8 15 -2 15 6 0 14 -5 17 -11z m-197 -24 c-3 -3
-9 2 -12 12 -6 14 -5 15 5 6 7 -7 10 -15 7 -18z"/>
<path d="M2910 1015 c0 -8 7 -15 15 -15 9 0 12 6 9 15 -4 8 -10 15 -15 15 -5
0 -9 -7 -9 -15z"/>
<path d="M2057 3623 c-4 -3 -7 -11 -7 -17 0 -6 5 -5 12 2 6 6 9 14 7 17 -3 3
-9 2 -12 -2z"/>
<path d="M2313 3479 c-10 -10 -32 -17 -61 -18 -7 -1 -10 -5 -7 -11 8 -13 52
-13 60 1 4 6 13 8 21 5 16 -6 18 3 6 21 -6 9 -11 10 -19 2z"/>
<path d="M2340 3481 c0 -12 16 -23 60 -38 42 -15 60 -16 60 -4 0 11 -39 26
-58 22 -8 -1 -24 5 -38 14 -13 8 -24 11 -24 6z"/>
<path d="M1835 3420 c-3 -6 1 -7 9 -4 18 7 21 14 7 14 -6 0 -13 -4 -16 -10z"/>
<path d="M2243 3373 c15 -2 39 -2 55 0 15 2 2 4 -28 4 -30 0 -43 -2 -27 -4z"/>
<path d="M2408 3355 c34 -8 72 -19 83 -26 11 -6 23 -9 25 -6 9 8 -78 38 -125
42 -41 4 -39 3 17 -10z"/>
<path d="M2255 3320 c-29 -7 -28 -8 10 -9 23 0 67 -8 99 -16 65 -17 80 -14 44
8 -28 18 -111 27 -153 17z"/>
<path d="M2536 3307 c3 -10 9 -15 12 -12 3 3 0 11 -7 18 -10 9 -11 8 -5 -6z"/>
<path d="M2497 3244 c-8 -8 1 -24 14 -24 5 0 9 7 9 15 0 15 -12 20 -23 9z"/>
<path d="M2702 3191 c-7 -19 -10 -36 -8 -38 8 -8 27 38 24 55 -3 11 -8 5 -16
-17z"/>
<path d="M2230 2995 c-13 -14 -21 -27 -18 -30 2 -3 17 9 33 25 16 17 24 30 19
30 -6 0 -21 -11 -34 -25z"/>
<path d="M2444 3005 c-17 -13 -15 -14 36 -14 35 0 50 3 40 8 -33 19 -57 21
-76 6z"/>
<path d="M2260 2886 c0 -2 11 -11 25 -20 20 -13 29 -14 50 -4 18 8 22 14 13
20 -13 8 -88 12 -88 4z"/>
<path d="M2746 2877 c3 -8 -2 -20 -11 -27 -13 -11 -21 -11 -36 -2 -21 13 -123
15 -154 3 -15 -6 -5 -10 38 -15 46 -6 58 -11 55 -24 -2 -11 -14 -17 -36 -18
-37 -2 -57 -14 -24 -14 12 0 22 -5 22 -11 0 -7 16 -8 45 -3 32 4 45 3 45 -6 0
-6 -9 -14 -20 -17 -11 -3 -20 -10 -21 -17 0 -6 -2 -21 -3 -32 -2 -19 0 -21 18
-11 12 5 27 13 35 17 8 3 21 16 29 29 14 20 14 22 -6 28 -32 8 -27 23 7 23 41
0 61 9 61 29 0 9 5 22 11 28 6 6 8 20 4 32 -7 22 -25 29 -25 9 0 -9 -3 -9 -12
0 -16 16 -29 15 -22 -1z m-74 -72 c0 -5 -5 -11 -11 -13 -6 -2 -11 4 -11 13 0
9 5 15 11 13 6 -2 11 -8 11 -13z"/>
<path d="M2378 2873 c7 -3 16 -2 19 1 4 3 -2 6 -13 5 -11 0 -14 -3 -6 -6z"/>
<path d="M2488 2853 c7 -3 16 -2 19 1 4 3 -2 6 -13 5 -11 0 -14 -3 -6 -6z"/>
<path d="M2325 2840 c3 -5 8 -10 11 -10 2 0 4 5 4 10 0 6 -5 10 -11 10 -5 0
-7 -4 -4 -10z"/>
<path d="M2380 2816 c25 -15 45 -12 35 5 -4 5 -18 9 -33 9 l-27 -1 25 -13z"/>
<path d="M2430 2820 c0 -5 5 -10 11 -10 5 0 7 5 4 10 -3 6 -8 10 -11 10 -2 0
-4 -4 -4 -10z"/>
<path d="M1466 846 c4 -52 17 -126 23 -126 3 0 6 32 5 72 -1 53 -5 72 -16 74
-8 1 -13 -7 -12 -20z"/>
<path d="M2100 852 c0 -5 7 -17 15 -28 8 -10 15 -26 15 -35 0 -16 48 -109 56
-109 6 0 -3 24 -52 138 -16 37 -34 56 -34 34z"/>
<path d="M2437 843 c-4 -3 -7 -11 -7 -17 0 -6 5 -5 12 2 6 6 9 14 7 17 -3 3
-9 2 -12 -2z"/>
<path d="M2710 830 c0 -11 4 -20 9 -20 5 0 7 9 4 20 -3 11 -7 20 -9 20 -2 0
-4 -9 -4 -20z"/>
<path d="M3003 842 c-13 -2 -23 -6 -23 -10 0 -4 -11 -20 -26 -35 -23 -25 -24
-29 -9 -44 14 -14 18 -14 26 -2 5 8 9 17 9 21 0 4 9 10 20 13 11 4 17 11 14
17 -4 6 -1 14 6 18 19 12 8 25 -17 22z"/>
<path d="M3201 826 c-18 -21 -10 -37 11 -22 10 7 13 17 9 25 -6 9 -11 8 -20
-3z"/>
<path d="M1531 729 c-1 -27 3 -58 8 -68 6 -10 11 -36 12 -57 3 -57 50 -164 72
-164 3 0 -6 35 -19 78 -13 42 -26 93 -28 112 -5 52 -27 139 -35 145 -4 2 -9
-18 -10 -46z"/>
<path d="M2574 728 c4 -12 -4 -23 -22 -34 -15 -8 -19 -13 -9 -10 13 4 17 2 13
-6 -3 -7 -9 -21 -12 -30 -4 -10 -10 -18 -15 -18 -5 0 -8 -3 -7 -7 1 -9 0 -12
-31 -93 l-21 -55 6 109 c3 67 2 106 -4 102 -5 -3 -10 -16 -10 -28 0 -13 -4
-50 -10 -83 -5 -33 -10 -69 -10 -80 0 -11 -7 -40 -16 -65 -19 -55 -20 -64 -2
-57 18 7 13 -36 -9 -70 -17 -25 -17 -26 0 -19 15 5 16 4 6 -8 -7 -8 -11 -25
-9 -38 3 -21 5 -20 21 11 9 19 17 40 17 48 0 7 7 24 15 36 8 13 19 46 25 75 5
29 19 71 30 94 11 23 20 49 20 59 0 9 7 19 15 23 8 3 12 12 9 20 -3 8 2 35 10
61 12 34 13 51 5 63 -10 16 -10 16 -5 0z"/>
<path d="M2796 730 c18 -35 104 -148 104 -136 0 8 -57 88 -85 121 -15 17 -23
23 -19 15z"/>
<path d="M2622 620 c-6 -11 -12 -30 -12 -42 1 -19 3 -17 16 11 17 40 15 61 -4
31z"/>
<path d="M2800 600 c0 -6 7 -10 15 -10 8 0 15 2 15 4 0 2 -7 6 -15 10 -8 3
-15 1 -15 -4z"/>
<path d="M1290 579 c0 -10 11 -37 25 -60 32 -56 33 -79 4 -53 -22 19 -22 19
-10 -4 7 -13 18 -21 24 -19 7 2 20 0 30 -5 21 -11 23 4 3 21 -8 6 -20 26 -27
44 -20 50 -49 94 -49 76z"/>
<path d="M2783 564 c4 -6 -2 -19 -12 -28 -10 -9 -21 -30 -25 -47 -3 -16 -12
-29 -21 -29 -8 0 -22 -11 -31 -25 -16 -24 -43 -37 -28 -14 4 8 -1 9 -16 4 -19
-6 -21 -5 -11 13 10 19 8 20 -17 17 -15 -2 -33 -4 -39 -4 -7 -1 -13 -8 -13
-16 0 -8 -4 -15 -10 -15 -5 0 -10 5 -10 12 0 6 -9 1 -20 -12 -23 -26 -26 -35
-8 -24 6 4 18 -2 26 -12 12 -15 13 -15 9 -2 -5 15 -2 15 26 6 18 -6 36 -16 40
-22 5 -7 7 -2 4 11 -4 19 -1 21 27 18 36 -5 49 2 61 30 8 18 9 17 13 -8 4 -30
22 -27 22 4 0 11 12 45 26 75 21 45 24 58 14 67 -9 8 -11 8 -7 1z m-173 -145
c-16 -28 -32 -24 -18 6 6 13 15 22 19 19 5 -3 4 -14 -1 -25z"/>
<path d="M1360 527 c0 -2 7 -18 15 -33 13 -25 15 -26 15 -8 0 12 -7 27 -15 34
-8 7 -15 10 -15 7z"/>
<path d="M2605 520 c-3 -5 -1 -10 4 -10 6 0 11 5 11 10 0 6 -2 10 -4 10 -3 0
-8 -4 -11 -10z"/>
<path d="M2597 484 c6 -15 23 -19 23 -5 0 5 -7 11 -14 14 -10 4 -13 1 -9 -9z"/>
<path d="M1396 445 c4 -8 10 -12 15 -9 11 6 2 24 -11 24 -5 0 -7 -7 -4 -15z"/>
<path d="M1436 445 c4 -8 10 -15 15 -15 4 0 6 7 3 15 -4 8 -10 15 -15 15 -4 0
-6 -7 -3 -15z"/>
<path d="M2106 444 c-3 -8 -2 -12 3 -9 5 3 12 1 16 -5 3 -5 -1 -10 -9 -10 -9
0 -16 -5 -16 -11 0 -6 9 -8 23 -3 32 10 33 12 10 34 -18 16 -22 17 -27 4z"/>
<path d="M1510 429 c0 -11 4 -18 10 -14 5 3 7 12 3 20 -7 21 -13 19 -13 -6z"/>
<path d="M1532 380 c0 -14 2 -19 5 -12 2 6 2 18 0 25 -3 6 -5 1 -5 -13z"/>
<path d="M2010 376 c0 -8 4 -17 9 -20 5 -4 7 3 4 14 -6 23 -13 26 -13 6z"/>
<path d="M2646 364 c-5 -14 -4 -15 9 -4 17 14 19 20 6 20 -5 0 -12 -7 -15 -16z"/>
<path d="M2705 370 c3 -5 8 -10 11 -10 2 0 4 5 4 10 0 6 -5 10 -11 10 -5 0 -7
-4 -4 -10z"/>
<path d="M1540 321 c0 -12 5 -21 10 -21 6 0 10 6 10 14 0 8 -4 18 -10 21 -5 3
-10 -3 -10 -14z"/>
<path d="M1436 280 c7 -42 14 -50 35 -41 12 4 14 12 8 26 -6 17 -8 17 -8 3 -1
-29 -17 -21 -29 15 l-11 32 5 -35z"/>
<path d="M1505 290 c-3 -5 -1 -10 4 -10 6 0 11 5 11 10 0 6 -2 10 -4 10 -3 0
-8 -4 -11 -10z"/>
<path d="M2438 225 c-10 -13 -18 -28 -18 -34 0 -5 -7 -14 -16 -19 -12 -7 -13
-11 -5 -16 13 -9 41 10 41 28 0 6 7 23 14 39 18 33 7 35 -16 2z"/>
<path d="M2747 203 c-20 -20 -37 -42 -37 -50 0 -12 27 16 69 70 22 29 7 19
-32 -20z"/>
<path d="M1540 223 c0 -4 5 -15 10 -23 8 -13 10 -13 10 2 0 9 -4 20 -10 23 -5
3 -10 3 -10 -2z"/>
<path d="M2471 164 c0 -11 3 -14 6 -6 3 7 2 16 -1 19 -3 4 -6 -2 -5 -13z"/>
<path d="M2111 154 c0 -11 3 -14 6 -6 3 7 2 16 -1 19 -3 4 -6 -2 -5 -13z"/>
<path d="M2804 138 c-3 -4 0 -8 6 -8 7 0 9 -8 5 -21 -5 -13 -3 -19 3 -15 16
10 20 53 5 53 -8 0 -16 -4 -19 -9z"/>
<path d="M2151 128 c-1 -19 30 -78 42 -78 11 0 8 10 -8 27 -8 8 -12 19 -9 25
4 6 2 8 -4 4 -6 -3 -12 3 -15 16 -2 14 -5 16 -6 6z"/>
<path d="M2658 80 c-16 -15 -28 -32 -28 -38 0 -6 -8 -16 -17 -21 -15 -9 -13
-10 14 -11 27 0 33 5 43 35 6 19 15 33 19 31 4 -3 8 4 8 15 2 25 -6 23 -39
-11z"/>
<path d="M2774 73 c-19 -30 -26 -53 -16 -53 9 1 44 71 39 77 -2 2 -13 -9 -23
-24z"/>
<path d="M2213 43 c-19 -7 -15 -23 5 -23 10 0 19 7 19 15 0 16 -4 17 -24 8z"/>
</g>
</svg>
